<?xml version="1.0" encoding="UTF-8"?>
<!DOCTYPE svg PUBLIC "-//W3C//DTD SVG 1.1//EN" "http://www.w3.org/Graphics/SVG/1.1/DTD/svg11.dtd">
<!-- Creator: CorelDRAW 2020 (64-Bit) -->
<svg xmlns="http://www.w3.org/2000/svg" xml:space="preserve" width="118mm" height="64.61mm" version="1.1" shape-rendering="geometricPrecision" text-rendering="geometricPrecision" image-rendering="optimizeQuality" fill-rule="evenodd" clip-rule="evenodd"
viewBox="0 0 11800 6461"
 xmlns:xlink="http://www.w3.org/1999/xlink"
 xmlns:xodm="http://www.corel.com/coreldraw/odm/2003">
 <g id="Layer_x0020_1">
  <metadata id="CorelCorpID_0Corel-Layer"/>
  <polygon id="A" fill="#547b9b" points="-8.4,2.42 11798,2.42 11798,6467.8 -8.4,6467.8 ">
   <metadata id="CorelCorpID_1">
    <xodm:odm xodm:name="FillColor" xodm:value="A" xodm:type="0"/>
   </metadata>
  </polygon>
  <path id="B" fill="#d2c8be" fill-rule="nonzero" d="M8355.95 2.42c-50.98,59.58 -107.98,120.93 -169.01,179.59 -2.51,-4.15 -5.32,-7.99 -7.75,-12.21 -30.99,-53.89 -52.34,-110.02 -65.58,-167.38l-94.96 0c16.67,88.9 46.43,174.67 90.19,251.07 -139.67,121.21 -267.88,249.45 -407.87,342.74 -125.44,63.73 -287.33,124.65 -485.1,159.13 -245.98,23.41 -434.59,-74.53 -554.93,-251.16 225.26,-112.66 412.43,-293.78 558.18,-501.78l-163.25 0c-124.77,159.7 -282.42,291.21 -462.3,381.58 -25.8,-57.57 -45.6,-118.77 -58.6,-181.6 -13.67,-66.05 -18.18,-132.94 -15.71,-199.98l-122.96 0c-4.31,150.51 19.17,300.09 75.73,434.91 -24.01,9.09 -48.24,17.75 -72.83,25.39 -254.2,78.89 -530.8,43.3 -718.29,-154.82 -41.28,-43.65 -72.98,-92.12 -96.86,-143.85 39.73,-52.97 78.37,-106.86 115.76,-161.63l-149.42 0 -11.7 16.8c-1.08,-5.58 -2.09,-11.18 -3.04,-16.8l-119.54 0c7.46,46.99 18.33,93.76 32.93,140.16 -315.59,418.83 -880.17,1005.79 -1241.15,457.2 -4.35,-6.59 -8.2,-13.47 -12.3,-20.18 215.8,-147.77 394.78,-351.87 539.65,-577.18l-158.1 0c-57.59,79.99 -119.28,156.79 -184.26,229.85 -76.42,85.92 -163.5,164.08 -257.02,229.83 -57.03,-140.34 -77.14,-298.22 -68.64,-459.68l-99.93 0c-8.47,176.93 9,360.61 71.66,522.04 -334.42,194.43 -730.8,222.06 -1031.32,-114.57 -43.48,-48.73 -80.02,-102.41 -110.42,-159.61 69.56,-80.56 133.57,-164.58 191.3,-247.86l-155.52 0c-29.93,39.37 -60.95,77.86 -92.9,115.44 -12.89,-37.54 -23.56,-76.11 -32.12,-115.44l-120.19 0c14.96,73.06 36.65,144.5 65.3,213.36 -171.72,182.47 -378.84,343.65 -618.68,419.47 -308.17,97.42 -542.45,-92.86 -641.14,-366.19 38.49,-32.83 75.24,-67.37 109.97,-102.92 50.61,-51.8 98.24,-106.69 143.48,-163.72l-160.9 0c-41.2,47.42 -84.11,93.23 -128.77,137.1 -9.17,-44.98 -15.32,-90.79 -18.64,-137.1l-109.79 0c3.42,68.92 11.61,137.27 24.77,204.31 1.49,7.39 3.57,14.38 5.2,21.67 -185.25,148.09 -415.31,235.25 -655.05,185.65 -159.92,-33.11 -294.39,-131.37 -397.13,-256.14 3.86,-3.69 7.83,-7.29 11.64,-11.02 46.48,-45.66 88.82,-93.95 127.46,-144.47l-163.16 0c-15.75,18.42 -32.05,36.55 -48.92,54.37 -11.28,-17.88 -22.03,-36.03 -32.17,-54.37l-121.09 0c20.35,46.34 44.37,91.04 71.83,133.7 -49.66,42.59 -103.59,79.73 -160.39,111.03l0 131.32c81.99,-40.49 159.64,-90.12 230.31,-146.54 77.17,92.36 172.56,171.61 283.94,232.14 306.87,166.8 627.27,70.01 887.64,-116.81 119.86,314.01 412.87,490.57 765.67,408.58 247.14,-57.44 469,-219.2 655.94,-414.59 46.6,81.19 103.57,157.75 172.58,227.1 310.04,311.45 753.03,276.17 1108.12,73.51 54.96,93.68 129.32,175.99 229.55,238.5 395,246.52 823.63,-195.81 1056.32,-464.98 40.68,-47.09 80.45,-95.05 119.38,-143.82 181.82,360.95 625.47,413.17 978.01,306.07 18.93,-5.75 37.44,-12.58 55.95,-19.26 57.87,92.52 134.4,174.81 233.09,240.4 240.36,159.65 532.13,133.42 788.01,19.21l0.01 0.03 0.39 -0.2c79.76,-35.64 156.03,-79.82 226.18,-129.58l1.04 -0.7 0.16 -0.13c48.89,-34.76 94.77,-72.23 136.76,-111.4 16.38,-15.24 32.14,-30.77 47.25,-46.47 62.41,-53.11 113.55,-96.85 207.66,-181.06 50.96,60.5 113.04,111.68 188.27,147.62 375.12,179.15 763.45,-47.97 1030.86,-321.34 55.8,73.71 124.63,139.68 208.72,193.54 363.68,233.01 818.47,115.88 1134.45,-136.36 77.17,92.36 172.56,171.61 283.95,232.14 264.35,143.69 538.77,91.75 776.19,-44.84l0 -134.97c-170.35,113.06 -370.78,172.77 -578.52,129.79 -159.92,-33.11 -294.39,-131.37 -397.13,-256.14 3.86,-3.69 7.84,-7.29 11.64,-11.02 46.48,-45.66 88.82,-93.95 127.46,-144.47l-163.16 0c-15.74,18.42 -32.05,36.55 -48.92,54.37 -11.28,-17.88 -22.02,-36.03 -32.17,-54.37l-121.09 0c20.36,46.34 44.37,91.04 71.83,133.7 -350.33,300.52 -913.13,329.2 -1197.34,-43.8 1.4,-1.62 2.9,-3.25 4.28,-4.88 24.2,-28.08 47.97,-56.43 71.34,-85.02l-131.31 0 -1.74 1.89 -1.07 -1.89 -117.19 0c12,27.98 25.5,55.3 40.51,81.88 -128.64,125.86 -269.48,232.55 -420.98,307.71 -240.41,119.25 -495.16,67.09 -660.1,-118.29 85.09,-85.66 163.26,-179.62 232.89,-271.3l-131.28 0zm3442.05 5861.46c-53.95,148.06 -88.39,296.18 -104.18,415.81 -8.02,60.85 -13.57,124.02 -15.76,188.11l99.9 0c2.51,-63.35 9.32,-127.3 20.04,-190.97l0 -412.95zm-976.89 603.92c24.56,-38.16 47.83,-76 69.74,-113.17 117.46,-199.37 200.02,-418.2 257.67,-641.64 44.45,-172.44 76.3,-362.21 -44.27,-509.54 -98.12,-119.89 -261.66,-54.64 -360.58,17.73 -183.61,134.36 -269.41,437.96 -326.17,644.4 -54.76,199.39 -65.19,406.38 -27.96,602.22l120.2 0c-65.89,-326.27 8.71,-701.04 175.38,-977.55 61.49,-102.03 147.34,-229.29 287.79,-185.37 139.3,43.52 92.88,206.08 70.69,312.41 -25.08,120.57 -64.16,237.72 -107.42,352.8 -66.31,176.4 -157.83,343.1 -266.1,497.71l151.03 0zm-1317.26 0c86.74,-121.93 163.88,-251.42 235.98,-380.66 114.66,-205.51 250.59,-455.39 269.71,-692.86 11.23,-139.49 -113.31,-220.76 -235.82,-219.84 -180.73,1.38 -318.62,174.68 -417.71,302.15 -214.14,275.68 -328.09,638.74 -319.85,991.21l108.81 0c-13.18,-399.3 173.58,-828.69 449.94,-1088.73 42.95,-36.74 91.36,-63.49 145.28,-80.34 251.96,-87.14 110.63,256.29 93.57,301.16 -55.33,145.48 -124.24,285.07 -197.42,422.21 -82.66,155.06 -177.62,306.03 -286.15,445.7l153.66 0zm-1285.64 0c236.67,-381.82 295.63,-861.21 329.73,-1301.18 3.5,-44.49 -45.6,-67.91 -82.06,-51.63 -368.75,164.68 -698.36,500.93 -754.75,915.65 -20.6,151.39 -5.32,300.15 40.62,437.16l111.01 0c-210.68,-477.15 146.89,-984.06 563.78,-1208.84 -42.64,425.5 -119.17,857.9 -361.56,1208.84l153.23 0zm-1429.51 0c209.85,-330.06 366.03,-739.79 358.74,-1111.2 -1.97,-101.72 -51.15,-248.69 -168.15,-267.08 -179.45,-28.13 -268.32,156.36 -329.71,294.68 -155.22,349.64 -194.2,745.55 -73.56,1083.6l212.68 0zm-1049.75 0c39.44,-102.94 73.67,-207.71 105.12,-310.67 63.27,-207.16 148.09,-481.89 114.29,-700.75 -16.15,-104.75 -74.59,-268.83 -210.38,-263.63 -171.09,6.52 -244.53,143.89 -280.77,297.27 -55.97,236.92 -30.66,506.91 -7.81,746.77 6.9,72.48 15.47,151.38 29,231.01l250.55 0zm-1133.16 0c162.87,-292.31 291.44,-663.84 180.6,-945.73 -38.96,-99.15 -189.18,-172.07 -285.9,-108.04 -164.38,108.86 -185.43,293.05 -200.87,476.06 -14.09,167.24 -11.11,374.55 23.47,577.71l282.7 0zm-1099.63 0c49.94,-89.86 94.21,-182.96 135.48,-275 76.25,-170.11 209.44,-460.79 108.75,-647.98 -61.37,-114.02 -179.81,-221.75 -320.52,-173.13 -159.73,55.23 -234.68,224.58 -259.06,382.02 -31.66,204.73 -47.56,468.52 -6.96,714.09l133.87 0c-26.23,-147.48 -30.16,-300.19 -28.42,-428.72 1.83,-135.91 18.28,-275.11 65.2,-402.95 44.1,-120.11 224.12,-280.08 313.23,-1.32 33.77,105.52 -20.8,234.17 -53.74,333.8 -55.28,167.16 -130.49,341.31 -227.97,499.19l140.14 0zm-1109.35 0c102.31,-360.08 67.47,-785.99 -44.5,-1087.72 -19.29,-51.92 -99.15,-40.17 -113.66,8.22 -105.52,351.21 -205.14,735.73 -102.62,1079.5l260.78 0zm-1044.44 0c-8.02,-28.1 -15.4,-56.38 -22.22,-84.62 29.83,-64.22 55.64,-130.28 77.84,-196.04 64.17,-190.14 150.28,-483.06 115.07,-685.24 -16.42,-94.63 -75.75,-233.09 -198.92,-209.96 -171.77,32.21 -194.13,211.27 -199.76,359.38 -9.03,237.57 22.33,474.75 83.13,704.23 -18.88,38.25 -39.65,75.73 -62.72,112.25l207.58 0zm-1295.39 0c-24.11,-51.31 -42.15,-105.76 -55.01,-161.8 241.3,-257.76 437.76,-586.39 523.62,-898.34 35.93,-130.58 -20.07,-261.76 -157.37,-288.38 -146.17,-28.36 -281.51,148.13 -331.33,261.3 -15.86,36.04 -31.02,72.47 -45.29,109.22l0 379.57c22.86,-134.72 72.99,-265.81 125.03,-390.83 33.4,-80.24 134.9,-275.32 243.23,-215.31 86.37,47.86 29.7,193.01 -5.94,267.53 -75.94,170.6 -201.93,404.1 -362.32,611.84l0 325.2 65.38 0zm1190.65 -881.24c3.78,-25.02 7.58,-50.06 11.34,-75.03 10.9,-89.39 56.74,-98.47 137.54,-27.17 22,69.82 3.3,151.61 -7.88,221.16 -24.99,154.96 -54.52,309.95 -103.2,457.66 -5.66,-32.6 -10.86,-64.22 -15.74,-94.18 -25.98,-159.47 -28.54,-321.41 -22.06,-482.44zm1048.87 35.25c52.37,229.87 50.38,464.92 -2.7,699.63 -9.21,40.57 -23.76,89.34 -42.9,141.69 -98.79,-261.1 -33.61,-568.54 45.6,-841.32zm2299.56 -164.3c71.48,80.09 105.39,166.94 101.7,260.55 1.6,66.13 -17.46,132.22 -31.98,196.08 -43.69,191.91 -118.47,374.33 -214.53,545.03 -25.7,-143.75 -34.59,-290.28 -37.02,-420.33 -3.85,-204.1 9.12,-436.98 181.83,-581.33zm1067.91 -122.29c135.59,-151.75 174.12,143.82 175.65,176.1 2.43,52.21 -8.46,105.83 -16.24,156.94 -23.03,151.7 -60.57,301.43 -102.52,448.87 -30.77,108.14 -66.83,217.05 -109.29,323.57 -6.13,-28.48 -11.28,-55.53 -15.71,-80.25 -29.54,-166.34 -38.66,-335.27 -39.31,-503.93 -0.66,-165.94 -11.03,-388.82 107.42,-521.3zm968.18 573.65c11.22,-147.11 57.01,-289.39 110.5,-425.84 29.04,-74.19 104.47,-279.33 210.02,-241.87 60.35,21.43 64.29,100.7 62.63,194.38 -21.88,303.39 -139.36,669.55 -327.19,974.62 -54.57,-159.16 -68.76,-332.89 -55.96,-501.29zm1103.94 -964.14c52.9,3.31 102.22,-1.87 148.72,-13.67l0 0.01 0.13 -0.04c83.97,-21.32 158.75,-64.13 228.7,-117.07 8.24,-6.14 16.22,-12.36 23.97,-18.67l1.77 -1.41 0.57 -0.46c6.87,-5.54 13.71,-11.15 20.51,-16.84l-0.51 -0.26c164.1,-145.44 213.21,-326.75 282.54,-426.86 95.71,142.03 240.31,249.71 409.01,290.51 246.33,59.57 489.67,-69.05 658.8,-242.9 13.69,22.38 28.6,44.64 44.99,66.63 253.23,339.57 691.51,229.71 956.16,-22.35 137.34,141.8 332.39,225.82 554.52,234.56 211.01,8.3 397.64,-68.58 545.85,-195.14 31.51,56.2 69.03,109.49 114.25,157.92 23.09,24.75 47.14,46.27 71.93,64.92l0 -173.37c-34.11,-43.76 -63.07,-94.15 -86.98,-148.27 31.55,-36.29 60.62,-75.05 86.98,-115.73l0 -272.99c-17.63,51.36 -38.62,100.24 -60.13,144 -20.84,42.34 -45.17,81.58 -72.3,117.86 -31.82,-112.31 -45.29,-230.4 -41.3,-333.52 2.79,-72.84 13.56,-145.64 23.02,-217.79 12.01,-91.96 95.57,-189.11 150.71,-139.02l0 -157.31c-63.96,-15.54 -136.35,4.32 -179.9,59.98 -124.69,159.31 -118.71,401.83 -116.38,593.08 1.28,107.11 20.34,211.38 57.16,308.6 -183.09,158.49 -437.13,218.79 -683.98,157.21 -115.63,-28.83 -211.15,-90.63 -283.89,-171.84 164.89,-204.95 521.05,-768.88 251.25,-939.44 -332.59,-210.33 -559.77,310.9 -534.53,572.32 13.37,138.43 58.83,259.62 127.96,360.72 -219.65,223.05 -553.5,307.28 -792.5,38.72 -22.11,-24.83 -41.01,-50.68 -57.53,-77.22 217.42,-284.12 202.7,-695.6 139.54,-1026.95 -9.35,-49.01 -81.52,-66.28 -107.78,-20.8 -185.81,321.48 -304.8,691.14 -162.42,1027.72 -112.35,154.46 -283.12,254.63 -529.96,246.74 -189.23,-6.08 -328.96,-137.96 -413.1,-297.66 188.3,-332.54 260.62,-751.79 212.03,-1088.14 -7.81,-54.02 -77.47,-58.09 -105.97,-20.42 -201.38,266.39 -337.08,574.79 -292.33,914.33 8.06,61.05 24.67,120.16 47.87,176.27 -127.89,198.69 -274.17,509.11 -488.73,585.33l-2.85 0.48 -2.87 0.46 -0.47 0.07 -5.26 0.82 -1.31 0.2 -4.45 0.66 -2.16 0.31 -0.74 0.11 -2.89 0.41 -2.9 0.38 -0.1 0.02 -2.81 0.37 -2.91 0.38 -0.95 0.11 -1.97 0.25 -2.93 0.36 -1.8 0.21 -1.12 0.13 -2.94 0.34 -2.67 0.28 -3.22 0.35 -2.96 0.3 -0.57 0.06 -2.38 0.24 -2.97 0.29 -1.44 0.13 -1.52 0.13 -2.97 0.28 -2.32 0.18 -0.66 0.06 -3 0.24 -3 0.24 -0.18 0.01 -5.81 0.42 -1.08 0.07 -1.93 0.13 -3.02 0.19 -1.95 0.13 -1.07 0.05 -3.02 0.18 -2.85 0.14 -0.19 0.02 -3.04 0.14 -3.04 0.14 -0.69 0.03 -2.36 0.1 -3.06 0.12 -1.58 0.06 -1.47 0.04 -3.07 0.1 -2.49 0.07 -0.59 0.02 -3.07 0.07 -3.08 0.06 -0.31 0.01 -2.79 0.04 -3.1 0.05 -1.19 0.01 -1.9 0.02 -3.1 0.02 -2.12 0 -0.99 0 -3.13 0 -3.02 0 -0.11 0 -3.12 -0.02 -3.14 -0.03 -0.81 -0.02 -2.33 -0.03 -3.14 -0.05 -1.73 -0.03 -1.43 -0.05 -3.15 -0.07 -2.65 -0.07 -0.51 -0.01 -3.17 -0.11 -3.18 -0.1 -0.4 -0.01 -2.77 -0.12 -3.2 -0.13 -1.32 -0.05 -1.86 -0.09 -3.2 -0.14 -2.27 -0.12 -0.93 -0.06 -3.21 -0.17 -3.21 -0.19c-129.45,-7.75 -241.16,-59.29 -329.64,-138.19 128.45,-140.09 219.65,-318.14 265.95,-514.04 34.23,-144.72 26.58,-298.78 -70.99,-416.42 -113.93,-137.27 -301.78,-33.58 -393.09,66.55 -174.31,191.11 -161.43,481.81 -71.94,706.13 22.22,55.81 51.8,105.79 86.65,150.65 -4.1,3.29 -8.22,6.51 -12.35,9.73l-2.35 1.81 -11.82 8.99 -0.78 0.58 -0.67 0.49c-4.04,3.01 -8.11,5.96 -12.2,8.9l-1.64 1.16c-4.26,3.06 -8.54,6.05 -12.85,9.04l-2.1 1.44 -10.79 7.29 -3.14 2.09 -11.86 7.69 -3.87 2.45 -9.16 5.7 -3.92 2.41 -12.49 7.44 -2.49 1.46 -12.21 6.97 -1.08 0.62 -1.08 0.61 -12.87 7.03 -2.01 1.06c-4.64,2.48 -9.27,4.89 -13.94,7.28l-0.28 0.14c-4.56,2.32 -9.16,4.6 -13.74,6.83l-2.14 1.05c-4.54,2.19 -9.08,4.37 -13.65,6.47l-0.57 0.26 -13.39 6.02 -3.6 1.57c-4.55,1.99 -9.12,3.93 -13.7,5.83l-0.36 0.15 -13.44 5.41 -3.25 1.29c-4.37,1.7 -8.75,3.35 -13.14,4.97l-3.14 1.15 -11.83 4.19 -2.69 0.94c-4.75,1.62 -9.54,3.21 -14.31,4.75l-1.49 0.48c-9.76,3.11 -19.55,6.03 -29.38,8.74l-2.99 0.82c-9.73,2.65 -19.49,5.07 -29.27,7.32l-2.34 0.53c-4.84,1.1 -9.66,2.16 -14.52,3.16l-0.32 0.05c-4.78,0.98 -9.56,1.89 -14.34,2.77l-3.13 0.56c-4.84,0.87 -9.67,1.7 -14.51,2.45l-0.87 0.13c-4.77,0.75 -9.53,1.44 -14.29,2.09l-1.95 0.26c-5,0.66 -10.01,1.27 -15.02,1.81l-1.16 0.13c-10.27,1.11 -20.55,1.99 -30.84,2.64l-2.16 0.13c-9.91,0.59 -19.85,0.95 -29.76,1.08l-3.04 0.03c-10.1,0.09 -20.18,-0.04 -30.27,-0.43l-0.77 -0.05c-5.25,-0.2 -10.48,-0.44 -15.72,-0.79l-0.03 -0.01c-5.17,-0.33 -10.33,-0.75 -15.49,-1.21l-1.16 -0.12c-5.19,-0.47 -10.37,-1.01 -15.55,-1.61l-0.23 -0.03c-5.25,-0.62 -10.5,-1.33 -15.74,-2.08l-0.25 -0.02c-5.21,-0.75 -10.41,-1.59 -15.61,-2.48l-1.04 -0.17c-5,-0.87 -9.98,-1.81 -14.97,-2.8l-0.43 -0.09c-5.1,-1.02 -10.2,-2.11 -15.28,-3.27l-1.51 -0.36c-121.51,-28.06 -237.82,-95.23 -337.32,-210.72 209.6,-207.05 393.47,-584.41 207.97,-812.72 -90.15,-110.91 -254.86,-16.15 -329.76,55.53 -128.79,123.3 -143.66,335.62 -123.64,500.2 10.36,85.26 38.35,163.41 78.31,233.86 -75.74,53.08 -160.89,92.59 -250.84,114.25 -225.45,54.29 -456.55,-27.24 -606.77,-190.36 58.6,-65.27 109.64,-135.78 150.81,-207.94 79.36,-138.97 185.11,-361.95 152.94,-527.67 -25.27,-130.24 -137.73,-240.3 -279.15,-182.23 -341.46,140.21 -374.72,636.52 -186.5,915.52 -67.81,61.59 -144.52,113.86 -230.03,153.68 -200.71,93.56 -427.35,74.55 -593.67,-37.84 138.81,-121.97 236.4,-291.76 263.82,-475.05 60.57,-404.92 -384.67,-497.79 -562.88,-164.12 -115.58,216.35 -44.28,455.48 106.3,626.13 -106.39,54.96 -226.3,83.91 -340.89,80.92 -185.66,-4.79 -332.6,-123.46 -425.15,-274.7 139.13,-183.71 505.98,-786.44 181.55,-892.03 -347.37,-113.09 -426.04,488.4 -388.44,697.11 11.75,65.27 32.05,127.37 59.57,185.04 -81.42,88.55 -175.38,162.49 -281.28,211.06 -302.32,138.79 -499.38,-25.41 -602.68,-259.19 100.66,-115.79 176.1,-256.52 218.79,-406.09 44.55,-155.81 61.9,-358.28 -31.55,-498.99 -63.65,-95.9 -209.67,-99.54 -280.16,-9.44 -124.69,159.31 -118.71,401.83 -116.38,593.08 1.28,107.11 20.34,211.38 57.16,308.6 -183.09,158.49 -437.13,218.79 -683.98,157.21 -115.64,-28.83 -211.16,-90.63 -283.89,-171.84 164.88,-204.95 521.04,-768.88 251.24,-939.44 -332.59,-210.33 -559.76,310.9 -534.52,572.32 13.37,138.43 58.83,259.62 127.96,360.72 -219.65,223.05 -553.5,307.28 -792.5,38.72 -22.11,-24.83 -41.01,-50.68 -57.53,-77.22 217.42,-284.12 202.69,-695.6 139.54,-1026.95 -9.35,-49.01 -81.52,-66.28 -107.78,-20.8 -44.04,76.19 -84.32,155.1 -118.25,235.63l0 910.84c3.74,-3.74 7.46,-7.48 11.13,-11.25 13.69,22.38 28.6,44.64 44.99,66.63 253.23,339.57 691.5,229.71 956.16,-22.35 137.34,141.8 332.39,225.82 554.52,234.56 211.01,8.3 397.63,-68.58 545.85,-195.14 31.5,56.2 69.03,109.49 114.25,157.92 275.92,295.64 684.39,141.57 931.24,-102.57 134.73,190.74 357.3,310.24 602.6,296.92 123.37,-6.72 239.31,-47.39 340.71,-111.15 54.52,43.78 114.59,79.52 177.27,104.24 296.88,117.2 597.61,-1.79 820.56,-204.1 254.04,266.97 667.39,305.59 985.3,112.83 10.86,-6.6 21.93,-14.06 32.98,-21.94 112.79,132.33 275.43,222.78 448.97,254.95l3.93 0.72 7.47 1.31 0.89 0.14 7.43 1.22 3.96 0.62 7.93 1.19 3.96 0.54 3.96 0.55 3.97 0.52 3.98 0.49 7.95 0.94 3.98 0.43 3.97 0.42 3.99 0.38 3.99 0.38 4 0.36 3.97 0.33 4.01 0.32 3.99 0.28 1.29 0.11 2.7 0.17 4 0.24 3.99 0.23 1.2 0.08 2.81 0.13 3.99 0.18 4 0.16 3.73 0.13 8.2 0.25 0.09 0 0.97 0.02 3.03 0.05 4 0.06 4.01 0.04 0.86 0.01 3.14 0 4.01 -0.01 0.6 0 6.8 -0.07 0.61 0 4 -0.08 4.01 -0.08 0.65 -0.02 0.67 -0.02 6.69 -0.22 4 -0.16 0.55 -0.01 1.19 -0.06 9.02 -0.46 1.24 -0.07 0.45 -0.02 3.56 -0.23 7.99 -0.55 0.33 -0.03 11.09 -0.92 0.58 -0.06 0.22 -0.01 0.83 -0.09 9.55 -0.96 1.37 -0.15 0.1 0 1.14 -0.12 10.72 -1.27c186.48,-23.48 347.67,-98.69 479.35,-209.14 127.68,108.34 295.69,167.92 467.3,178.67zm-7719.21 -772.33c-63.82,-220.07 6.58,-471.36 107.61,-684.91 17.12,229.97 -10.28,484.15 -107.61,684.91zm992.5 79.72c-77.2,-135.05 -104.61,-300.48 -71.33,-460.04 12.76,-61.08 41.81,-116.5 73.88,-169.23 41.24,-78.27 134.65,-119.41 208.68,-90.14 100.65,39.8 78.44,138.6 50.62,221.04 -45.32,163.38 -148.15,327.23 -240.89,468.1 -6.74,10.29 -13.74,20.37 -20.96,30.27zm1107.32 -330.53c2.79,-72.84 13.55,-145.64 23.02,-217.79 15.21,-116.51 145.25,-241.39 186.89,-64.62 37.8,160.32 -26.53,356.03 -96.31,498.07 -20.85,42.34 -45.18,81.58 -72.3,117.86 -31.82,-112.31 -45.29,-230.4 -41.3,-333.52zm1059.27 400.47c-7.3,-18.49 -14.16,-37.03 -19.91,-55.7 -33.65,-108.86 -32.71,-225.47 -8.81,-335.92 11.95,-55.11 36.96,-105.72 64.69,-154.31 24.72,-52.5 87.44,-82.27 141.37,-68.64 90.9,22.92 67.09,101.78 42.63,168.65 -46.57,151.6 -120.75,309.27 -219.97,445.92zm805.55 37.68c-42.81,-137.89 -10.21,-290.8 91.39,-393.32 135.47,-136.68 260.89,5.2 267.26,148.52 2.77,61.42 -15.56,122.12 -34.46,179.72 -36.56,111.34 -110.33,204.48 -203,274.68 -53.37,-57.05 -95.55,-127.1 -121.19,-209.6zm1073.35 -405.44c26.22,-90.91 120.6,-254.23 227.73,-207.41 63.73,27.85 77.53,100.39 67.25,189.58 -9.78,38.91 -21.01,77.32 -33.73,115.37 -44.62,142.53 -115.37,274.87 -209.64,386.41 -10.28,-16.58 -20.02,-33.58 -28.79,-51.24 -66.56,-133.84 -63.07,-292.85 -22.82,-432.71zm1019.09 255.05c3.35,-77.49 33.45,-149.05 70.79,-215.45 71.76,-127.8 217.75,-19.97 206.03,96.5 -16.91,168.66 -98.4,322.38 -216.98,438.3 -48.31,-98.07 -64.45,-212.43 -59.84,-319.35zm1089.34 133c-28.52,-114.45 -12.56,-231.65 27.65,-340.47 24.33,-65.89 228.08,-356.6 318.76,-87.97 28.52,84.6 5.63,182.98 -13.97,266.11 -35.51,150.45 -115.72,288.77 -221.86,400.92 -51.04,-70.16 -88.88,-151.51 -110.58,-238.59zm1270.8 -320.17c-50.72,-244.65 53.2,-491.73 188.64,-697.84 10.48,267.58 -50.21,527.51 -171.95,762.88 -6.44,-21.77 -12.22,-43.53 -16.69,-65.04zm1090.35 150.22c-63.82,-220.07 6.58,-471.36 107.61,-684.91 17.13,229.97 -10.27,484.15 -107.61,684.91zm992.5 79.72c-77.19,-135.05 -104.61,-300.48 -71.33,-460.04 12.76,-61.08 41.82,-116.5 73.88,-169.23 59.89,-113.63 244.87,-153.22 283.33,-0.85 -1.64,45.16 -9.64,89.09 -24.03,131.75 -45.32,163.38 -148.14,327.23 -240.89,468.1 -6.74,10.29 -13.74,20.37 -20.96,30.27z">
   <metadata id="CorelCorpID_2">
    <xodm:odm xodm:name="FillColor" xodm:value="B" xodm:type="0"/>
   </metadata>
  </path>
  <path id="C" fill="#ffffff" fill-rule="nonzero" d="M-8.4 2827.39c81.99,-40.49 159.64,-90.12 230.31,-146.54 77.17,92.36 172.56,171.61 283.94,232.14 306.87,166.8 627.27,70.01 887.64,-116.81 119.86,314.01 412.87,490.57 765.67,408.58 247.14,-57.44 469,-219.19 655.94,-414.59 46.6,81.19 103.57,157.75 172.58,227.1 310.04,311.45 753.03,276.17 1108.12,73.51 54.96,93.68 129.32,175.99 229.55,238.5 395,246.52 823.63,-195.81 1056.32,-464.98 40.68,-47.09 80.45,-95.05 119.38,-143.82 181.82,360.95 625.47,413.17 978.01,306.07 18.93,-5.75 37.44,-12.58 55.95,-19.26 57.87,92.52 134.4,174.81 233.09,240.4 240.36,159.65 532.13,133.42 788.01,19.21l0.01 0.03 0.39 -0.2c79.76,-35.64 156.03,-79.82 226.18,-129.58l1.04 -0.7 0.16 -0.13c48.89,-34.76 94.77,-72.23 136.76,-111.4 16.38,-15.24 32.14,-30.77 47.25,-46.47 62.41,-53.11 113.55,-96.85 207.66,-181.06 50.96,60.5 113.04,111.68 188.27,147.62 375.12,179.15 763.45,-47.97 1030.86,-321.34 55.8,73.71 124.63,139.68 208.72,193.54 363.68,233.01 818.47,115.88 1134.45,-136.36 77.17,92.36 172.56,171.61 283.95,232.14 264.35,143.69 538.77,91.75 776.19,-44.84l0 -134.97c-170.35,113.06 -370.78,172.77 -578.52,129.79 -159.92,-33.11 -294.39,-131.37 -397.13,-256.14 3.86,-3.69 7.84,-7.29 11.64,-11.02 403.87,-396.65 495.65,-991.51 549.05,-1528.25 4.46,-44.4 -44.11,-68.89 -80.92,-53.4 -372.25,156.58 -709.12,485.56 -774.56,898.95 -38.21,241.26 15.42,477.83 140.38,671.93 -350.33,300.52 -913.13,329.2 -1197.34,-43.8 1.4,-1.62 2.9,-3.25 4.28,-4.88 179.85,-208.75 336.7,-431.59 471.74,-671.77 90.29,-160.62 255.59,-411.56 214.32,-606.84 -32.82,-155.3 -171.86,-261.49 -332.64,-197.18 -234.66,93.87 -385.93,326.8 -494.33,544.78 -147.25,296.15 -154,652.61 1.45,927.87 -128.64,125.86 -269.48,232.55 -420.98,307.71 -240.41,119.25 -495.16,67.09 -660.1,-118.29 161.89,-162.99 298.81,-355.99 399.29,-506.25 145.71,-217.83 517.28,-786.57 152.98,-977.34 -340.9,-178.57 -673.78,512.17 -752.51,730.56 -81.03,224.67 -69.24,516.33 54.74,732.8 -139.67,121.21 -267.88,249.45 -407.87,342.74 -125.44,63.73 -287.33,124.65 -485.1,159.13 -245.98,23.41 -434.59,-74.53 -554.93,-251.16 334.34,-167.23 584.76,-485.18 740.45,-818.15 141.31,-302.31 225.22,-827.74 -218.4,-899.76 -445.01,-72.26 -652.4,595.57 -738.91,904.76 -68.84,246.2 -68.02,517.48 27.95,746.28 -24.01,9.09 -48.24,17.75 -72.83,25.39 -254.2,78.89 -530.8,43.3 -718.29,-154.82 -41.28,-43.65 -72.98,-92.12 -96.86,-143.85 250.71,-334.18 457.24,-705.26 589.82,-1100.52 45.33,-135.06 7.72,-256.6 -121.01,-317.61 -156.9,-74.36 -304.23,97.22 -370.42,211.27 -206.07,355.02 -359.65,784.32 -233.4,1185.39 -315.59,418.83 -880.17,1005.79 -1241.15,457.2 -4.35,-6.59 -8.2,-13.47 -12.3,-20.18 379.76,-260.04 645.52,-694.5 812.01,-1112.11 115.54,-289.71 151.09,-831.09 -321.53,-729.49 -412.52,88.68 -642.74,702.74 -698.15,1062.11 -35.86,232.49 -36.09,499.93 51.03,724.35 -334.42,194.43 -730.8,222.06 -1031.32,-114.57 -43.48,-48.73 -80.02,-102.41 -110.42,-159.61 110.37,-127.81 206.78,-264.37 286.29,-392.78 121.79,-196.75 209.1,-413.74 271.62,-635.87 48.2,-171.41 84.18,-360.45 -33.13,-510.37 -95.48,-122.01 -260.41,-60.34 -360.89,9.86 -186.51,130.32 -278.9,431.97 -340.15,637.12 -85.53,286.75 -78.61,591.47 32.13,857.54 -171.72,182.47 -378.84,343.65 -618.68,419.47 -308.17,97.42 -542.45,-92.86 -641.14,-366.19 38.49,-32.83 75.24,-67.37 109.97,-102.92 172.59,-176.64 310.9,-389.08 435.36,-601.18 119.13,-202.96 260.48,-449.81 284.78,-686.81 14.28,-139.21 -108.47,-223.18 -230.96,-224.94 -180.73,-2.56 -322.37,167.69 -424.21,292.96 -278.37,342.68 -399.64,828.56 -314.82,1260.56 1.49,7.39 3.57,14.38 5.2,21.67 -185.25,148.09 -415.31,235.25 -655.05,185.65 -159.92,-33.11 -294.39,-131.37 -397.13,-256.14 3.86,-3.69 7.83,-7.29 11.64,-11.02 403.87,-396.65 495.64,-991.51 549.04,-1528.25 4.47,-44.4 -44.1,-68.89 -80.91,-53.4 -372.25,156.58 -709.12,485.56 -774.57,898.95 -38.2,241.26 15.43,477.83 140.39,671.93 -49.66,42.59 -103.59,79.73 -160.39,111.03l0 131.32zm752.1 -1670.16c-59.62,487.41 -164.09,982.94 -510.28,1348.48 -27.05,-42.86 -50.95,-87.26 -71.12,-132.14 -219.14,-487.79 153.82,-997.72 581.4,-1216.34zm1165.46 145.58c43.75,-35.78 92.73,-61.48 147,-77.15 253.81,-81.61 105.02,258.64 86.98,303.13 -58.5,144.24 -130.44,282.29 -206.58,417.8 -130.47,232.39 -289.05,454.76 -479.52,641.85 -92.21,-451.87 120.66,-987.09 452.12,-1285.63zm1190.01 -2.68c123.65,-152.93 338.27,-74.88 253.15,272.47 -27.72,119.99 -69.35,236.26 -115.1,350.36 -94.2,234.87 -233.44,451.27 -397.13,643.83 -142.58,-415.28 -14.5,-955.3 259.08,-1266.66zm1395.66 134.13c136.06,-140.8 420.15,-239.96 482.46,32.47 30.59,133.54 -39.85,289.82 -86.85,411.63 -113.47,294.11 -288.49,567.81 -497.56,802.83 -76.42,85.92 -163.5,164.08 -257.02,229.83 -191.33,-470.79 32.67,-1139.17 358.97,-1476.76zm1110.34 434.06c46.66,-136.6 113.28,-266.91 179.63,-394.69 42.7,-82.2 96.91,-161.17 203.52,-166.9 152.24,-8.15 46.65,231.48 28.83,278.17 -107.06,281.21 -252.51,545.95 -418.92,796.03 -17.48,26.32 -37.5,55.69 -59.54,87.21 -38.26,-198.19 5.08,-420.02 66.48,-599.82zm1092.84 -71.1c56.26,-136.29 122.47,-258.1 233.28,-357.41 208.93,-187.3 450.64,-24.42 457.77,223.76 7.45,258.66 -150.03,532.33 -294.04,735.22 -130.21,183.45 -302.2,334.02 -501.45,434.14 -25.8,-57.58 -45.6,-118.78 -58.6,-181.61 -59.6,-287.97 54.84,-592.11 163.04,-854.1zm1543.59 -21.54c49.85,-95.39 113.91,-183.25 178.27,-269.09 124.19,-165.71 460.73,-294.98 439.86,35.24 -15.99,252.98 -220.31,527.09 -361.59,727.48 -74.25,105.34 -183.95,239.33 -311.2,361.62 -2.51,-4.15 -5.32,-7.99 -7.75,-12.21 -153.41,-266.85 -70.56,-588.49 62.41,-843.04zm1210.38 -166.91c61.25,-123.83 148.31,-239.43 243.32,-339.06 61.15,-64.16 353.33,-259.2 358.65,47.19 1.14,65 -29.88,134 -54.03,193.18 -129.48,317.45 -330.77,666.77 -586.75,943.15 -6.43,-11.51 -12.88,-23.05 -18.86,-35.2 -126.36,-256.47 -62.98,-565.35 57.67,-809.26zm1807.67 -451.54c-59.62,487.41 -164.09,982.94 -510.28,1348.48 -27.05,-42.86 -50.95,-87.26 -71.12,-132.14 -219.13,-487.79 153.82,-997.72 581.4,-1216.34z">
   <metadata id="CorelCorpID_3">
    <xodm:odm xodm:name="FillColor" xodm:value="C" xodm:type="0"/>
   </metadata>
  </path>
 </g>
</svg>
